Genre:Comedy
Language:English
 
http://www.imdb.com/title/tt1488555/

Source:CAM-ERDNA Thanks!

Format : MPEG-4
Format profile : Base Media
Codec ID : isom
File size : 1.29 GiB
Duration : 1h 46mn
Overall bit rate : 1 734 Kbps

Video
ID : 1
Format : AVC
Format/Info : Advanced Video Codec
Format profile : High@L4.1
Format settings, CABAC : Yes
Format settings, ReFrames : 3 frames
Codec ID : avc1
Codec ID/Info : Advanced Video Coding
Duration : 1h 46mn
Bit rate mode : Variable
Bit rate : 1 500 Kbps
Maximum bit rate : 4 904 Kbps
Width : 640 pixels
Height : 304 pixels
Display aspect ratio : 2.2:1
Frame rate mode : Constant
Frame rate : 29.970 fps
Color space : YUV
Chroma subsampling : 4:2:0
Bit depth : 8 bits
Scan type : Progressive
Bits/(Pixel*Frame) : 0.257
Stream size : 1.12 GiB (87%)
Writing library : x264

Audio
ID : 2
Format : AAC
Format/Info : Advanced Audio Codec
Format version : Version 4
Format profile : LC
Format settings, SBR : No
Codec ID : 40
Duration : 1h 46mn
Bit rate mode : Variable
Bit rate : 224 Kbps
Maximum bit rate : 255 Kbps
Channel(s) : 2 channels
Channel positions : Front: L R
Sampling rate : 48.0 KHz
Stream size : 171 MiB (13%)


Plot:
A comedy in which a married father accidentally switches bodies with his best friend, leading to a series of wildly complex difficulties.
 
http://www.pix2links.com/images/35144299546397660013.png
 
http://www.pix2links.com/images/22484159294711852205.png
 
http://www.pix2links.com/images/24542939856848795835.png
 
http://www.pix2links.com/images/16698025351045164808.png
